<svg xmlns="http://www.w3.org/2000/svg" width="187" height="34" viewBox="0 0 187 34"><g><g><path d="M46.446 27.911h3.741V7.768h-3.741z"/></g><g><path d="M63.998 12.372c-2.245 0-4.115.748-5.295 2.158v-1.986H55.28v15.367h3.597v-1.423a1.36 1.36 0 0 1-.003-.09v-9.142c0-.972.788-1.76 1.76-1.76h4.427a1.76 1.76 0 0 1 1.761 1.76v9.141c0 .033 0 .066-.003.1v1.414h3.597v-8.806c0-4.632-2.734-6.733-6.417-6.733z"/></g><g><path d="M90.385 12.544V25.58c0 5.583-2.906 8.116-8.287 8.116-2.878 0-5.727-.748-7.482-2.187l1.61-2.705c1.354 1.122 3.54 1.84 5.67 1.84 3.396 0 4.892-1.553 4.892-4.66v-.807c-1.266 1.381-3.08 2.043-5.151 2.043-4.402 0-7.77-2.993-7.77-7.453 0-4.46 3.368-7.395 7.77-7.395 2.159 0 4.058.69 5.324 2.215v-2.043zm-8.201 11.627c2.705 0 4.662-1.785 4.662-4.403 0-2.59-1.957-4.346-4.662-4.346-2.734 0-4.691 1.756-4.691 4.346 0 2.618 1.957 4.403 4.69 4.403z"/></g><g><path d="M109.55 20.314c0 .288-.03.72-.058 1.065H97.435c.432 2.244 2.302 3.683 4.978 3.683 1.727 0 3.079-.547 4.173-1.669l1.928 2.216c-1.382 1.64-3.54 2.503-6.187 2.503-5.151 0-8.49-3.309-8.49-7.885 0-4.574 3.368-7.855 7.943-7.855 4.489 0 7.77 3.136 7.77 7.942zm-3.425-1.324c-.287-2.215-1.985-3.74-4.345-3.74-2.331 0-4.028 1.495-4.374 3.74z"/></g><g><path d="M121.721 12.372c-2.245 0-4.115.748-5.295 2.158v-1.986h-3.424v15.367h3.597v-1.423a1.36 1.36 0 0 1-.003-.09v-9.142c0-.972.788-1.76 1.76-1.76h4.427a1.76 1.76 0 0 1 1.761 1.76v9.141c0 .033 0 .066-.003.1v1.414h3.597v-8.806c0-4.632-2.734-6.733-6.417-6.733z"/></g><g><path d="M132.224 7.855c0 1.208.978 2.158 2.302 2.158 1.352 0 2.302-.979 2.302-2.245 0-1.18-.978-2.072-2.302-2.072s-2.302.95-2.302 2.159zm.489 20.056h3.597V12.544h-3.597z"/></g><g><path d="M152.31 12.545v7.77c0 .287-.016.56-.045.82v2.053a1.76 1.76 0 0 1-1.76 1.759h-4.19a1.76 1.76 0 0 1-1.76-1.76v-1.522a7.558 7.558 0 0 1-.044-.832v-8.288h-3.598v8.777c0 4.633 2.677 6.79 6.62 6.79 1.984 0 3.797-.747 4.948-2.157v1.957h3.425V12.545z"/></g><g><path d="M180.02 12.372c-2.446 0-4.518.978-5.755 2.561-1.065-1.727-2.935-2.56-5.18-2.56-2.1 0-3.885.747-5.036 2.128v-1.957h-3.424v15.367h3.597V17.268c0-.972.788-1.76 1.76-1.76h3.933c.972 0 1.76.788 1.76 1.76v10.643h3.597v-1.49a1.598 1.598 0 0 1-.006-.14v-9.013c0-.972.79-1.76 1.761-1.76h3.938c.972 0 1.76.788 1.76 1.76v10.643h3.597v-8.806c0-4.632-2.59-6.733-6.302-6.733z"/></g><g><path d="M36.949 8.25v19.563a2.728 2.728 0 0 1-2.728 2.728h-6.546v-10.52c0-5.536-3.266-8.046-7.667-8.046-2.682 0-4.917.894-6.326 2.58v-3.778H9.59v19.764H3.132a2.728 2.728 0 0 1-2.728-2.728V8.25a2.728 2.728 0 0 1 2.728-2.728h3.843a5.366 5.366 0 0 0 4.515 2.47 5.369 5.369 0 0 0 4.515-2.47H34.22a2.728 2.728 0 0 1 2.728 2.728z"/></g><g><path d="M14.208 2.715a2.718 2.718 0 1 1-5.437 0 2.718 2.718 0 0 1 5.437 0z"/></g><g><path d="M23.38 17.514v14.404c0 .783-.634 1.418-1.417 1.418h-6.661a1.418 1.418 0 0 1-1.418-1.418V17.514c0-.783.635-1.417 1.418-1.417h6.66c.784 0 1.419.634 1.419 1.417z"/></g></g></svg>